<?xml version="1.0" encoding="UTF-8" standalone="no"?>
<svg width="42px" height="38px" xmlns="http://www.w3.org/2000/svg" version="1.1">
    <title>Slice 1</title>
    <description>Created with Sketch (http://www.bohemiancoding.com/sketch)</description>
    <defs>
        <linearGradient id="gradient-1" x1="50%" y1="0%" x2="50%" y2="100%">
            <stop offset="0%" style="stop-color:rgb(255,255,255); stop-opacity:100"></stop>
            <stop offset="100%" style="stop-color:rgb(0,0,0); stop-opacity:100"></stop>
        </linearGradient>
        <linearGradient id="gradient-2" x1="50%" y1="0%" x2="50%" y2="100%">
            <stop offset="0%" style="stop-color:rgb(255,255,255); stop-opacity:100"></stop>
            <stop offset="100%" style="stop-color:rgb(0,0,0); stop-opacity:100"></stop>
        </linearGradient>
        <linearGradient id="gradient-3" x1="50%" y1="0%" x2="50%" y2="100%">
            <stop offset="0%" style="stop-color:rgb(255,255,255); stop-opacity:100"></stop>
            <stop offset="100%" style="stop-color:rgb(0,0,0); stop-opacity:100"></stop>
        </linearGradient>
        <linearGradient id="gradient-4" x1="50%" y1="0%" x2="50%" y2="100%">
            <stop offset="0%" style="stop-color:rgb(255,255,255); stop-opacity:100"></stop>
            <stop offset="100%" style="stop-color:rgb(0,0,0); stop-opacity:100"></stop>
        </linearGradient>
        <linearGradient id="gradient-5" x1="50%" y1="0%" x2="50%" y2="100%">
            <stop offset="0%" style="stop-color:rgb(255,255,255); stop-opacity:100"></stop>
            <stop offset="100%" style="stop-color:rgb(0,0,0); stop-opacity:100"></stop>
        </linearGradient>
        <radialGradient id="gradient-6" cx="7%" cy="48%" fx="7%" fy="48%" r="347%">
            <stop offset="-6%" style="stop-color:rgb(255,254,254); stop-opacity:100"></stop>
            <stop offset="0%" style="stop-color:rgb(255,255,255); stop-opacity:100"></stop>
            <stop offset="0%" style="stop-color:rgb(254,254,254); stop-opacity:100"></stop>
            <stop offset="0%" style="stop-color:rgb(254,254,254); stop-opacity:100"></stop>
            <stop offset="1%" style="stop-color:rgb(253,253,253); stop-opacity:100"></stop>
            <stop offset="5%" style="stop-color:rgb(247,246,246); stop-opacity:100"></stop>
            <stop offset="8%" style="stop-color:rgb(243,242,242); stop-opacity:100"></stop>
            <stop offset="100%" style="stop-color:rgb(122,120,120); stop-opacity:100"></stop>
        </radialGradient>
        <linearGradient id="gradient-7" x1="50%" y1="0%" x2="50%" y2="100%">
            <stop offset="0%" style="stop-color:rgb(255,255,255); stop-opacity:100"></stop>
            <stop offset="100%" style="stop-color:rgb(0,0,0); stop-opacity:100"></stop>
        </linearGradient>
        <radialGradient id="gradient-8" cx="29%" cy="51%" fx="29%" fy="51%" r="327%">
            <stop offset="0%" style="stop-color:rgb(228,45,139); stop-opacity:100"></stop>
            <stop offset="100%" style="stop-color:rgb(122,120,120); stop-opacity:100"></stop>
        </radialGradient>
        <linearGradient id="gradient-9" x1="50%" y1="0%" x2="50%" y2="100%">
            <stop offset="0%" style="stop-color:rgb(255,255,255); stop-opacity:100"></stop>
            <stop offset="100%" style="stop-color:rgb(0,0,0); stop-opacity:100"></stop>
        </linearGradient>
        <linearGradient id="gradient-10" x1="50%" y1="0%" x2="50%" y2="100%">
            <stop offset="0%" style="stop-color:rgb(255,255,255); stop-opacity:100"></stop>
            <stop offset="100%" style="stop-color:rgb(0,0,0); stop-opacity:100"></stop>
        </linearGradient>
        <radialGradient id="gradient-11" cx="7%" cy="48%" fx="7%" fy="48%" r="347%">
            <stop offset="0%" style="stop-color:rgb(255,254,254); stop-opacity:100"></stop>
            <stop offset="0%" style="stop-color:rgb(255,255,255); stop-opacity:100"></stop>
            <stop offset="0%" style="stop-color:rgb(254,254,254); stop-opacity:100"></stop>
            <stop offset="0%" style="stop-color:rgb(254,254,254); stop-opacity:100"></stop>
            <stop offset="1%" style="stop-color:rgb(253,253,253); stop-opacity:100"></stop>
            <stop offset="5%" style="stop-color:rgb(247,246,246); stop-opacity:100"></stop>
            <stop offset="8%" style="stop-color:rgb(243,242,242); stop-opacity:100"></stop>
            <stop offset="100%" style="stop-color:rgb(122,120,120); stop-opacity:100"></stop>
        </radialGradient>
        <linearGradient id="gradient-12" x1="50%" y1="0%" x2="50%" y2="100%">
            <stop offset="0%" style="stop-color:rgb(255,255,255); stop-opacity:100"></stop>
            <stop offset="100%" style="stop-color:rgb(0,0,0); stop-opacity:100"></stop>
        </linearGradient>
        <radialGradient id="gradient-13" cx="29%" cy="51%" fx="29%" fy="51%" r="327%">
            <stop offset="0%" style="stop-color:rgb(228,45,139); stop-opacity:100"></stop>
            <stop offset="100%" style="stop-color:rgb(122,120,120); stop-opacity:100"></stop>
        </radialGradient>
        <linearGradient id="gradient-14" x1="50%" y1="0%" x2="50%" y2="100%">
            <stop offset="0%" style="stop-color:rgb(255,255,255); stop-opacity:100"></stop>
            <stop offset="100%" style="stop-color:rgb(0,0,0); stop-opacity:100"></stop>
        </linearGradient>
        <linearGradient id="gradient-15" x1="50%" y1="0%" x2="50%" y2="100%">
            <stop offset="0%" style="stop-color:rgb(255,255,255); stop-opacity:100"></stop>
            <stop offset="100%" style="stop-color:rgb(0,0,0); stop-opacity:100"></stop>
        </linearGradient>
        <radialGradient id="gradient-16" cx="7%" cy="48%" fx="7%" fy="48%" r="347%">
            <stop offset="0%" style="stop-color:rgb(255,254,254); stop-opacity:100"></stop>
            <stop offset="0%" style="stop-color:rgb(255,255,255); stop-opacity:100"></stop>
            <stop offset="0%" style="stop-color:rgb(254,254,254); stop-opacity:100"></stop>
            <stop offset="0%" style="stop-color:rgb(254,254,254); stop-opacity:100"></stop>
            <stop offset="1%" style="stop-color:rgb(253,253,253); stop-opacity:100"></stop>
            <stop offset="5%" style="stop-color:rgb(247,246,246); stop-opacity:100"></stop>
            <stop offset="8%" style="stop-color:rgb(243,242,242); stop-opacity:100"></stop>
            <stop offset="100%" style="stop-color:rgb(122,120,120); stop-opacity:100"></stop>
        </radialGradient>
        <linearGradient id="gradient-17" x1="50%" y1="0%" x2="50%" y2="100%">
            <stop offset="0%" style="stop-color:rgb(255,255,255); stop-opacity:100"></stop>
            <stop offset="100%" style="stop-color:rgb(0,0,0); stop-opacity:100"></stop>
        </linearGradient>
        <radialGradient id="gradient-18" cx="29%" cy="51%" fx="29%" fy="51%" r="327%">
            <stop offset="0%" style="stop-color:rgb(228,45,139); stop-opacity:100"></stop>
            <stop offset="100%" style="stop-color:rgb(122,120,120); stop-opacity:100"></stop>
        </radialGradient>
        <linearGradient id="gradient-19" x1="50%" y1="0%" x2="50%" y2="100%">
            <stop offset="0%" style="stop-color:rgb(255,255,255); stop-opacity:100"></stop>
            <stop offset="100%" style="stop-color:rgb(0,0,0); stop-opacity:100"></stop>
        </linearGradient>
    </defs>
    <g fill="rgb(215,215,215)" id="Page 1">
        <g fill="rgb(215,215,215)" id="Group">
            <g stroke="rgb(56,53,53)" stroke-width="1" fill="rgb(255,255,255)" id="Rectangle 4"></g>
            <path id="Rectangle 4" d="M4,0 C1,0 0,1 0,4 L0,33 C0,35 1,37 4,37 L37,37 C40,37 42,35 42,33 L42,4 C42,1 40,0 37,0 L4,0 Z M4,0" stroke="rgb(56,53,53)" stroke-width="1" fill="rgb(255,255,255)"></path>
            <path id="Rectangle 4 decoration" d="" stroke="rgb(56,53,53)" stroke-width="1" fill="rgb(255,255,255)"></path>
            <g fill="rgb(215,215,215)" id="Group">
                <g style="fill:url(#gradient-6)" fill="none" id="Rectangle 3"></g>
                <path id="Rectangle 3" d="M4,26 C3,26 2,27 2,28 L2,32 C2,34 3,35 4,35 L37,35 C38,35 40,34 40,32 L40,28 C40,27 38,26 37,26 L4,26 Z M4,26" style="fill:url(#gradient-6)" fill="none"></path>
                <path id="Rectangle 3 decoration" d="" style="fill:url(#gradient-6)" fill="none"></path>
                <g fill="rgb(228,45,139)" id="Rectangle 3"></g>
                <path id="Rectangle 3" d="M6,27 C4,27 3,28 3,30 L3,31 C3,33 4,34 6,34 L35,34 C37,34 39,33 39,31 L39,30 C39,28 37,27 35,27 L6,27 Z M6,27" fill="rgb(228,45,139)"></path>
                <path id="Rectangle 3 decoration" d="" fill="rgb(228,45,139)"></path>
            </g>
            <g fill="rgb(215,215,215)" id="Group copy">
                <g style="fill:url(#gradient-11)" fill="none" id="Rectangle 3"></g>
                <path id="Rectangle 3" d="M4,14 C3,14 2,15 2,16 L2,20 C2,22 3,23 4,23 L37,23 C38,23 40,22 40,20 L40,16 C40,15 38,14 37,14 L4,14 Z M4,14" style="fill:url(#gradient-11)" fill="none"></path>
                <path id="Rectangle 3 decoration" d="" style="fill:url(#gradient-11)" fill="none"></path>
                <g fill="rgb(228,45,139)" id="Rectangle 3"></g>
                <path id="Rectangle 3" d="M6,15 C4,15 3,16 3,18 L3,19 C3,21 4,22 6,22 L35,22 C37,22 39,21 39,19 L39,18 C39,16 37,15 35,15 L6,15 Z M6,15" fill="rgb(228,45,139)"></path>
                <path id="Rectangle 3 decoration" d="" fill="rgb(228,45,139)"></path>
            </g>
            <g fill="rgb(215,215,215)" id="Group copy 2">
                <g style="fill:url(#gradient-16)" fill="none" id="Rectangle 3"></g>
                <path id="Rectangle 3" d="M4,2 C3,2 2,3 2,4 L2,8 C2,10 3,11 4,11 L37,11 C38,11 40,10 40,8 L40,4 C40,3 38,2 37,2 L4,2 Z M4,2" style="fill:url(#gradient-16)" fill="none"></path>
                <path id="Rectangle 3 decoration" d="" style="fill:url(#gradient-16)" fill="none"></path>
                <g fill="rgb(228,45,139)" id="Rectangle 3"></g>
                <path id="Rectangle 3" d="M6,3 C4,3 3,4 3,6 L3,7 C3,9 4,10 6,10 L35,10 C37,10 39,9 39,7 L39,6 C39,4 37,3 35,3 L6,3 Z M6,3" fill="rgb(228,45,139)"></path>
                <path id="Rectangle 3 decoration" d="" fill="rgb(228,45,139)"></path>
            </g>
        </g>
    </g>
</svg>